<?xml version="1.0" encoding="utf-8"?>
<!-- Generator: Adobe Illustrator 27.9.0, SVG Export Plug-In . SVG Version: 6.00 Build 0)  -->
<svg version="1.1" id="Layer_1" xmlns="http://www.w3.org/2000/svg" xmlns:xlink="http://www.w3.org/1999/xlink" x="0px" y="0px"
	 viewBox="0 0 500 500" style="enable-background:new 0 0 500 500;" xml:space="preserve">
<style type="text/css">
	.st0{fill:#00CCFF;}
	.st1{fill:#004FFF;}
</style>
<g>
	<path class="st0" d="M307.11,307.08c0-49.89,39.38-90.58,88.76-92.67c-15.98-65.71-75.21-114.49-145.84-114.49
		c-70.63,0-129.86,48.79-145.84,114.5c49.26,2.21,88.52,42.85,88.52,92.66c0,26.03-10.73,49.56-28,66.41
		c24.22,16.77,53.63,26.6,85.33,26.6c31.64,0,60.98-9.78,85.18-26.5C317.88,356.74,307.11,333.16,307.11,307.08z M250.4,285.8
		c-19.57,0-35.43-15.86-35.43-35.43c0-19.57,15.86-35.43,35.43-35.43c19.57,0,35.43,15.86,35.43,35.43
		C285.83,269.94,269.97,285.8,250.4,285.8z"/>
	<path class="st1" d="M492.63,307.08c0,51.23-41.53,92.76-92.76,92.76c-25.15,0-47.96-10.01-64.66-26.25
		c39.21-27.08,64.91-72.33,64.91-123.59c0-12.26-1.47-24.19-4.25-35.59c1.32-0.06,2.66-0.09,4-0.09
		C451.1,214.32,492.63,255.84,492.63,307.08z"/>
	<path class="st1" d="M164.71,373.49c-16.72,16.31-39.57,26.35-64.76,26.35c-51.23,0-92.76-41.53-92.76-92.76
		c0-51.23,41.53-92.76,92.76-92.76c1.42,0,2.84,0.03,4.24,0.1c-2.77,11.4-4.24,23.32-4.24,35.58
		C99.95,301.19,125.58,346.4,164.71,373.49z"/>
</g>
</svg>
